solid Exported from Blender-2.82 (sub 7)
facet normal 0.000000 -1.000000 0.000000
outer loop
vertex 1.000000 0.950000 -1.000000
vertex 1.000000 0.950000 1.000000
vertex -1.000000 0.950000 1.000000
endloop
endfacet
facet normal 0.000000 1.000000 0.000000
outer loop
vertex -1.000000 1.000000 1.000000
vertex 1.000000 1.000000 1.000000
vertex 1.000000 1.000000 -1.000000
endloop
endfacet
facet normal 0.000000 -0.999851 -0.017261
outer loop
vertex 1.000000 1.022509 -0.983453
vertex 1.000000 0.987987 1.016249
vertex -1.000000 0.987987 1.016249
endloop
endfacet
facet normal 0.874933 0.484245 0.000000
outer loop
vertex 0.390688 1.359177 1.000000
vertex 1.359177 -0.390688 1.000000
vertex 1.359177 -0.390688 -1.000000
endloop
endfacet
facet normal -0.000002 0.000000 1.000000
outer loop
vertex 0.493863 -0.927742 1.000000
vertex -0.474627 0.822123 1.000000
vertex -0.518373 0.797911 1.000000
endloop
endfacet
facet normal -0.874933 -0.484244 0.000000
outer loop
vertex 0.450116 -0.951955 -1.000000
vertex 0.450116 -0.951955 1.000000
vertex -0.518373 0.797911 1.000000
endloop
endfacet
facet normal 0.874933 0.484245 0.000000
outer loop
vertex -0.474627 0.822123 1.000000
vertex 0.493863 -0.927742 1.000000
vertex 0.493863 -0.927742 -1.000000
endloop
endfacet
facet normal 0.000000 -1.000000 0.000000
outer loop
vertex -0.589186 0.950000 -1.284094
vertex -0.589186 0.950000 0.715906
vertex -2.589186 0.950000 0.715906
endloop
endfacet
facet normal 0.000000 -1.000000 0.000000
outer loop
vertex -1.208717 0.950000 -0.477853
vertex -1.208717 0.950000 0.597955
vertex -1.969655 0.950000 0.597955
endloop
endfacet
facet normal 0.000000 1.000000 0.000000
outer loop
vertex 1.000000 0.950000 -1.000000
vertex 1.000000 0.950000 1.000000
vertex 3.000000 0.950000 1.000000
endloop
endfacet
facet normal 0.000000 1.000000 0.000000
outer loop
vertex 2.500000 0.950000 1.500000
vertex 2.500000 0.950000 -0.500000
vertex 0.500000 0.950000 -0.500000
endloop
endfacet
endsolid Exported from Blender-2.82 (sub 7)
